<svg xmlns="http://www.w3.org/2000/svg" viewBox="0 0 100 100">
    <title>Asset 1</title>
    <g id="Layer_2" data-name="Layer 2">
        <g id="Layer_1-2" data-name="Layer 1">
            <circle cx="50" cy="50" r="50" fill="#94bde4" />
            <path
                d="M65.35,80.87l-.94-.24h-.08a1.15,1.15,0,0,1-1,.24,1.18,1.18,0,1,1,.55-2.29,1.22,1.22,0,0,1,.79.71h.07l1,.24.87-3.62-.71-.24a.61.61,0,0,1-.32-.16,1.11,1.11,0,0,1-1,.24A1.18,1.18,0,1,1,65,73.46a1,1,0,0,1,.79.79h.23l.71.24,1-3.7a2.78,2.78,0,0,0-.79-.16c-.08,0-.24-.08-.32-.08a1.26,1.26,0,0,1-.94.16,1.19,1.19,0,0,1-.87-1.42,1.17,1.17,0,0,1,1.42-.86,1,1,0,0,1,.79.78c.31.08.63.08.94.16l.87-3.46a5.71,5.71,0,0,0-1.1-.32h0a1.08,1.08,0,0,1-.87.08A1.19,1.19,0,0,1,66,64.25a1.17,1.17,0,0,1,1.42-.86,1.2,1.2,0,0,1,.87.86,4.35,4.35,0,0,1,.94.32l.87-3.47-1.18-.47h0a1.28,1.28,0,0,1-.79.08,1.19,1.19,0,0,1-.87-1.42,1.17,1.17,0,0,1,1.42-.86,1.08,1.08,0,0,1,.87.94c.31.08.55.24.86.32l1-3.86-1-.24c-.08,0-.08,0-.08-.08a1.25,1.25,0,0,1-.94.16,1.19,1.19,0,0,1-.87-1.42,1.17,1.17,0,0,1,1.42-.86,1,1,0,0,1,.79.78h0l.94.24.95-3.78a4.43,4.43,0,0,0-.95-.32,1.39,1.39,0,0,1-1.1.32,1.17,1.17,0,0,1-.86-1.42,1.16,1.16,0,0,1,1.41-.86,1.24,1.24,0,0,1,.71.55c.39.08.71.23,1.1.31l.87-3.46a9.72,9.72,0,0,1-1.26-.32,1.28,1.28,0,0,1-.79.08,1.17,1.17,0,0,1-.86-1.42,1.16,1.16,0,0,1,1.41-.86,1.09,1.09,0,0,1,.87.86l.94.24L75,40.71c-.39-.08-.79-.24-1.18-.32a.92.92,0,0,1-.79.08,1.17,1.17,0,0,1,.55-2.28,1.2,1.2,0,0,1,.87.87l.94.23,1-3.78-1-.47a1,1,0,0,1-1.1.31,1.17,1.17,0,0,1,.55-2.28,1.22,1.22,0,0,1,.63.47c.08,0,.16,0,.16.08l1,.47.86-3.62a6.47,6.47,0,0,1-1.1-.31,1.26,1.26,0,0,1-1,.15,1.16,1.16,0,0,1-.86-1.41A1.18,1.18,0,0,1,75.91,28a1.79,1.79,0,0,1,.63.4h.15c.4.07.79.23,1.11.31l.86-3.39-42.2-9.84L22.05,74,64.49,84.49Z"
                fill="#e6e9ed" />
            <rect x="54.49" y="10.03" width="0.31" height="35.59"
                transform="matrix(0.24, -0.97, 0.97, 0.24, 14.56, 74.23)" fill="#cfd5e0" />
            <rect x="53.63" y="13.37" width="0.31" height="35.59"
                transform="translate(10.65 75.93) rotate(-76.15)" fill="#cfd5e0" />
            <rect x="52.83" y="16.73" width="0.31" height="35.59"
                transform="translate(6.78 77.71) rotate(-76.15)" fill="#cfd5e0" />
            <rect x="51.94" y="20.15" width="0.31" height="35.59"
                transform="matrix(0.24, -0.97, 0.97, 0.24, 2.79, 79.45)" fill="#cfd5e0" />
            <rect x="51.15" y="23.5" width="0.31" height="35.59"
                transform="translate(-1.07 81.24) rotate(-76.15)" fill="#cfd5e0" />
            <rect x="50.29" y="26.85" width="0.31" height="35.59"
                transform="translate(-4.97 82.94) rotate(-76.15)" fill="#cfd5e0" />
            <rect x="49.5" y="30.21" width="0.31" height="35.59"
                transform="translate(-8.83 84.73) rotate(-76.15)" fill="#cfd5e0" />
            <rect x="48.61" y="33.63" width="0.31" height="35.59"
                transform="translate(-12.83 86.47) rotate(-76.15)" fill="#cfd5e0" />
            <rect x="47.82" y="36.99" width="0.31" height="35.59"
                transform="translate(-16.7 88.25) rotate(-76.15)" fill="#cfd5e0" />
            <rect x="47.03" y="40.34" width="0.31" height="35.59"
                transform="translate(-20.55 90.03) rotate(-76.15)" fill="#cfd5e0" />
            <rect x="46.16" y="43.68" width="0.31" height="35.59"
                transform="translate(-24.46 91.73) rotate(-76.15)" fill="#cfd5e0" />
            <rect x="45.37" y="47.04" width="0.31" height="35.59"
                transform="translate(-28.32 93.52) rotate(-76.15)" fill="#cfd5e0" />
            <rect x="44.49" y="50.46" width="0.31" height="35.59"
                transform="translate(-32.31 95.27) rotate(-76.15)" fill="#cfd5e0" />
            <rect x="43.69" y="53.82" width="0.31" height="35.59"
                transform="translate(-36.18 97.05) rotate(-76.15)" fill="#cfd5e0" />
            <rect x="42.82" y="57.15" width="0.31" height="35.59"
                transform="translate(-40.08 98.74) rotate(-76.15)" fill="#cfd5e0" />
            <rect x="55.25" y="6.64" width="0.31" height="35.59"
                transform="translate(18.42 72.39) rotate(-76.15)" fill="#cfd5e0" />
            <path
                d="M64.8,74.41H63.7a1.13,1.13,0,0,1-.94.47,1.18,1.18,0,1,1,0-2.36,1.4,1.4,0,0,1,.94.47h1.1v-3.7h-.71c-.15,0-.23,0-.31-.08a1.12,1.12,0,0,1-1,.48,1.19,1.19,0,0,1,0-2.37,1.11,1.11,0,0,1,1,.55c.08,0,.16-.07.24-.07h.7V64.17a2.59,2.59,0,0,0-.78.08h-.32a1.24,1.24,0,0,1-.86.4,1.19,1.19,0,1,1,0-2.37,1.37,1.37,0,0,1,1,.55,4.63,4.63,0,0,1,1-.07V59.13a6.62,6.62,0,0,0-1.18-.07h0a1.42,1.42,0,0,1-.79.31,1.18,1.18,0,0,1,0-2.36,1.05,1.05,0,0,1,1,.63,3.74,3.74,0,0,1,.94.08V54.09c-.39-.07-.86-.07-1.26-.15h0a1.3,1.3,0,0,1-.71.23,1.18,1.18,0,1,1,0-2.36,1.35,1.35,0,0,1,1.11.71c.31,0,.63.08.94.08v-4H63.7a1.26,1.26,0,0,1-.87.4,1.19,1.19,0,0,1,0-2.37,1.09,1.09,0,0,1,1,.56h1V43.31a4.06,4.06,0,0,0-1-.08,1.16,1.16,0,1,1-1-1.81,1.25,1.25,0,0,1,.87.39,5.86,5.86,0,0,1,1.18.08V38.35H63.62a1.3,1.3,0,0,1-.71.23,1.18,1.18,0,1,1,0-2.36,1.06,1.06,0,0,1,1,.63h.94V33.46c-.39,0-.79-.07-1.18-.07a1.45,1.45,0,0,1-.79.31,1.18,1.18,0,0,1,0-2.36,1.05,1.05,0,0,1,1,.63h.94V28.11c-.31-.08-.63-.16-1-.24a1.23,1.23,0,0,1-1,.56,1.19,1.19,0,0,1,0-2.37.94.94,0,0,1,.71.24h.16l1,.24V22.83h-1.1a1.1,1.1,0,0,1-.86.4,1.18,1.18,0,1,1,.7-2.13H64.8V17.64H21.1V77.8H64.8Z"
                fill="#fff" />
            <rect x="23.94" y="21.81" width="35.59" height="0.31" fill="#e6e9ed" />
            <rect x="23.94" y="25.28" width="35.59" height="0.31" fill="#e6e9ed" />
            <rect x="23.94" y="28.74" width="35.59" height="0.31" fill="#e6e9ed" />
            <rect x="23.94" y="32.2" width="35.59" height="0.31" fill="#e6e9ed" />
            <rect x="23.94" y="35.75" width="35.59" height="0.31" fill="#e6e9ed" />
            <rect x="23.94" y="39.21" width="35.59" height="0.31" fill="#e6e9ed" />
            <rect x="23.94" y="42.68" width="35.59" height="0.31" fill="#e6e9ed" />
            <rect x="23.94" y="46.14" width="35.59" height="0.31" fill="#e6e9ed" />
            <rect x="23.94" y="49.61" width="35.59" height="0.31" fill="#e6e9ed" />
            <rect x="23.94" y="53.07" width="35.59" height="0.31" fill="#e6e9ed" />
            <rect x="23.94" y="56.54" width="35.59" height="0.31" fill="#e6e9ed" />
            <rect x="23.94" y="60" width="35.59" height="0.31" fill="#e6e9ed" />
            <rect x="23.94" y="63.46" width="35.59" height="0.31" fill="#e6e9ed" />
            <rect x="23.94" y="66.93" width="35.59" height="0.31" fill="#e6e9ed" />
            <rect x="23.94" y="70.39" width="35.59" height="0.31" fill="#e6e9ed" />
            <rect x="23.94" y="73.86" width="35.59" height="0.31" fill="#e6e9ed" />
        </g>
    </g>
</svg>