<?xml version="1.0" encoding="iso-8859-1"?>
<!-- Generator: Adobe Illustrator 19.0.0, SVG Export Plug-In . SVG Version: 6.00 Build 0)  -->
<svg version="1.1" id="Layer_1" xmlns="http://www.w3.org/2000/svg" xmlns:xlink="http://www.w3.org/1999/xlink" x="0px" y="0px"
	 viewBox="0 0 512 512" style="enable-background:new 0 0 512 512;" xml:space="preserve">
<circle style="fill:#83CF8F;" cx="256" cy="256" r="256"/>
<path style="fill:#FFFFFF;" d="M371.154,182.753c26.238,0,50.107,10.568,67.234,27.878c17.127,17.127,27.878,40.996,27.878,67.234
	s-10.568,49.925-27.878,67.234c-17.127,17.127-40.996,27.878-67.234,27.878s-49.925-10.568-67.234-27.878
	c-17.127-17.127-27.878-40.996-27.878-67.234s10.568-49.925,27.878-67.234C321.048,193.503,344.917,182.753,371.154,182.753z
	 M442.215,330.705c-6.559-3.28-15.305-6.013-25.509-8.017c-0.911,2.004-1.822,4.009-2.915,6.013
	c-7.835,14.577-19.314,27.513-34.619,37.352c21.136-1.822,40.268-11.297,54.48-25.509c3.098-3.098,5.831-6.377,8.382-9.839H442.215z
	 M363.137,366.053c-15.123-9.657-26.602-22.594-34.619-37.352c-1.093-2.004-2.004-3.826-2.915-5.831
	c-10.021,2.004-18.949,4.555-25.509,7.835c2.551,3.462,5.466,6.742,8.381,9.839c14.212,14.212,33.344,23.687,54.48,25.509H363.137z
	 M296.45,325.238c6.924-3.644,16.034-6.559,26.602-8.564c-4.373-11.297-6.742-23.322-7.106-35.348h-33.162
	c0.547,16.216,5.466,31.157,13.665,44.094V325.238z M282.784,274.585h33.162c0.364-13.119,3.098-26.238,8.199-38.263
	c-10.204-2.004-19.132-4.737-26.238-8.017c-9.11,13.301-14.577,29.153-15.123,46.463V274.585z M301.916,222.838
	c6.742,3.098,15.305,5.466,24.962,7.288c0.547-1.275,1.275-2.551,2.004-3.644c7.835-14.394,19.314-27.149,34.255-36.623
	c-21.136,2.004-40.268,11.297-54.48,25.509C306.289,217.737,304.103,220.288,301.916,222.838z M379.354,189.677
	c14.941,9.475,26.42,22.229,34.255,36.623c0.729,1.275,1.275,2.551,2.004,3.644c9.657-1.822,18.403-4.191,24.962-7.288
	c-2.186-2.733-4.373-5.102-6.742-7.47C419.621,200.974,400.672,191.499,379.354,189.677z M444.401,228.122
	c-6.924,3.462-15.852,6.195-26.056,8.017c5.102,12.208,7.653,25.144,8.017,38.263h33.162c-0.547-17.127-6.195-32.979-15.123-46.463
	V228.122z M459.525,281.145h-33.162c-0.364,12.026-2.733,24.051-7.106,35.348c10.568,2.186,19.678,4.92,26.602,8.564
	c8.199-12.754,13.119-27.878,13.665-44.094V281.145z M374.434,194.414v39.357c11.843-0.182,23.505-0.911,34.255-2.551
	c-0.364-0.547-0.547-1.093-0.911-1.64C400.307,215.732,389.193,203.525,374.434,194.414z M374.434,240.33v34.255h45.369
	c-0.364-12.754-3.098-25.327-8.199-37.17C399.943,239.237,387.189,240.148,374.434,240.33z M374.434,281.145v31.157
	c13.301,0.182,26.42,1.093,38.263,3.098c4.373-10.932,6.742-22.594,7.106-34.255H374.434z M374.434,318.861v42.272
	c14.759-9.11,25.873-21.683,33.526-35.712c0.729-1.275,1.458-2.551,2.004-4.009c-10.932-1.64-23.14-2.551-35.53-2.733V318.861z
	 M367.875,361.133v-42.272c-12.39,0.182-24.416,1.093-35.53,2.733c0.547,1.275,1.275,2.733,2.004,4.009
	c7.47,14.03,18.767,26.42,33.526,35.712V361.133z M367.875,312.12v-31.157h-45.369c0.364,11.661,2.733,23.322,7.106,34.255
	C341.455,313.213,354.574,312.302,367.875,312.12z M367.875,274.403v-34.255c-12.754-0.182-25.509-1.093-37.17-2.915
	c-5.102,11.843-7.835,24.416-8.199,37.17H367.875z M367.875,233.589v-39.357c-14.759,8.928-25.873,21.318-33.344,35.166
	c-0.364,0.547-0.547,1.093-0.911,1.64C344.37,232.678,356.031,233.406,367.875,233.589z"/>
<g>
	<path style="fill:#FFE356;" d="M327.972,222.838c6.377,0,11.479,5.102,11.479,11.479c0,6.377-5.102,11.479-11.479,11.479
		s-11.479-5.102-11.479-11.479C316.493,227.94,321.594,222.838,327.972,222.838z"/>
	<path style="fill:#FFE356;" d="M412.333,222.838c6.377,0,11.479,5.102,11.479,11.479c0,6.377-5.102,11.479-11.479,11.479
		s-11.479-5.102-11.479-11.479C400.854,227.94,405.956,222.838,412.333,222.838z"/>
	<path style="fill:#FFE356;" d="M327.972,308.475c6.377,0,11.479,5.102,11.479,11.479c0,6.377-5.102,11.479-11.479,11.479
		s-11.479-5.102-11.479-11.479C316.493,313.577,321.594,308.475,327.972,308.475z"/>
	<path style="fill:#FFE356;" d="M412.333,308.475c6.377,0,11.479,5.102,11.479,11.479c0,6.377-5.102,11.479-11.479,11.479
		s-11.479-5.102-11.479-11.479C400.854,313.577,405.956,308.475,412.333,308.475z"/>
	<path style="fill:#FFE356;" d="M462.075,266.75c6.377,0,11.479,5.102,11.479,11.479s-5.102,11.479-11.479,11.479
		s-11.479-5.102-11.479-11.479S455.698,266.75,462.075,266.75z"/>
	<path style="fill:#FFE356;" d="M279.14,266.75c6.377,0,11.479,5.102,11.479,11.479s-5.102,11.479-11.479,11.479
		c-6.377,0-11.479-5.102-11.479-11.479S272.763,266.75,279.14,266.75z"/>
</g>
<path style="fill:#FF7069;" d="M371.154,260.009c9.839,0,17.856,8.017,17.856,17.856s-8.017,17.856-17.856,17.856
	s-17.856-8.017-17.856-17.856S361.315,260.009,371.154,260.009z"/>
<path style="fill:#F0BA7D;" d="M149.409,286.611h12.937h39.357h12.937l5.284,54.844l9.293,7.47l19.86,12.572L189.13,503.072
	c-5.466-1.458-10.932-3.098-16.216-4.92l-57.759-136.655l19.861-12.572l9.293-7.47l5.284-54.844H149.409z"/>
<path style="fill:#ECF0F1;" d="M127.909,353.116l-53.933,17.31l90.192,124.811c8.928,3.462,18.038,6.377,27.513,8.928
	l82.357-138.659l-38.081-12.026l-33.526,23.687h-40.268l-34.073-23.869L127.909,353.116z"/>
<path style="fill:#FF5B62;" d="M169.999,374.616l4.555,11.479l-8.746,109.688c10.75,4.009,21.683,7.288,32.979,9.839l-9.475-119.527
	l4.555-11.479l-12.026-0.547l-12.026,0.547H169.999z"/>
<path style="fill:#6B7F9E;" d="M128.82,352.752L33.708,383.18c31.522,55.026,83.086,97.298,144.672,116.977l-49.56-147.223V352.752z
	 M358.036,490.864c-3.826-30.611-8.746-68.327-11.297-81.628c-3.644-19.132-16.034-26.056-16.034-26.056l-94.93-30.064
	l-50.836,148.863C207.533,508.538,231.22,512,256,512C292.259,512,326.696,504.53,358.036,490.864z"/>
<path style="fill:#8597B1;" d="M128.82,352.752l-20.589,6.559l-4.009,52.293c0,0,1.093,4.373,4.373,3.826l18.585,6.924
	c0,0,1.275,1.275,0.182,2.733L111.51,436.02l24.416,45.916c13.483,7.106,27.695,13.119,42.454,17.856l-49.56-147.223V352.752z
	 M214.093,508.538l38.446-72.518l-15.852-10.932c-1.093-1.458,0.182-2.733,0.182-2.733l18.585-6.924
	c3.28,0.364,4.373-3.826,4.373-3.826l-4.009-52.111l-20.043-6.377l-50.836,148.863C194.414,504.712,204.071,506.898,214.093,508.538
	z"/>
<path style="fill:#FED298;" d="M106.044,174.918c0,5.102-1.822,10.021-1.64,14.941c-17.492-3.28-9.11,48.649,0.911,55.755
	c0.729,0.547,2.733-0.729,4.373-1.822c3.462,19.132,32.615,69.967,51.2,91.468c5.102,6.013,36.806,5.831,41.907,0.182
	c19.132-20.954,48.285-72.518,51.747-91.65c1.64,1.093,3.644,2.369,4.373,1.822c9.839-7.106,18.221-59.035,0.911-55.755
	c0.182-4.92-1.64-9.839-1.64-14.941c-0.911-40.268-37.535-60.31-75.98-60.493c-38.446,0.182-74.887,20.225-75.98,60.493H106.044z"/>
<path style="fill:#596366;" d="M237.415,123.172c5.466-0.729,25.327,5.466,27.695,26.42c2.369,21.136,1.275,40.45,1.275,40.45
	s-11.661,2.915-13.119,14.941s-0.364,12.026-0.364,12.026l-4.191-0.911l-2.915-20.407c-17.492-10.932,0.182-27.149-17.31-30.975
	c-47.009,33.526-88.735,27.878-107.32,12.026c0,0,4.373,16.581,0.911,22.411c-3.462,5.831-1.275,15.123-1.275,15.123l-4.373-0.182
	c0,0,0.729-24.233-8.928-24.233C70.514,128.82,187.49,53.022,237.597,123.172H237.415z"/>
<g>
	<path style="fill:#FFFFFF;" d="M143.761,333.62c1.275,0.182-16.034,19.678-16.034,19.678l14.759,50.471l39.539-29.517
		C160.342,363.502,147.223,349.836,143.761,333.62z"/>
	<path style="fill:#FFFFFF;" d="M220.288,333.62c-1.458,0.182,16.034,19.678,16.034,19.678l-14.759,50.471l-39.539-29.517
		C203.707,363.502,216.826,349.836,220.288,333.62z"/>
</g>
<g>
</g>
<g>
</g>
<g>
</g>
<g>
</g>
<g>
</g>
<g>
</g>
<g>
</g>
<g>
</g>
<g>
</g>
<g>
</g>
<g>
</g>
<g>
</g>
<g>
</g>
<g>
</g>
<g>
</g>
</svg>
