<svg xmlns="http://www.w3.org/2000/svg" viewBox="0 0 242.79 183.3">
    <title>Asset 1</title>
    <g id="Layer_2" data-name="Layer 2">
        <g id="OBJECTS">
            <path
                d="M183.16,29.64h21.36a1.75,1.75,0,0,1,1.75,1.75v9.94a1.75,1.75,0,0,1-1.75,1.75H181.41a0,0,0,0,1,0,0V31.39A1.75,1.75,0,0,1,183.16,29.64Z"
                style="fill:#fefeff" />
            <polygon points="181.41 40.3 181.39 46.24 186.46 40.31 181.41 40.3"
                style="fill:#fefeff" />
            <path d="M197.52,36.19a1.12,1.12,0,0,0,2.24,0,1.12,1.12,0,1,0-2.24,0Z"
                style="fill:#3f51b5" />
            <path d="M192.72,36.18a1.12,1.12,0,1,0,1.12-1.12A1.12,1.12,0,0,0,192.72,36.18Z"
                style="fill:#3f51b5" />
            <path
                d="M187.92,36.16a1.12,1.12,0,0,0,2.24,0A1.13,1.13,0,0,0,189,35,1.12,1.12,0,0,0,187.92,36.16Z"
                style="fill:#3f51b5" />
            <rect x="80.32" width="42.72" height="18.66" rx="1.25"
                transform="translate(203.36 18.66) rotate(180)" style="fill:#3f51b5" />
            <polygon points="118.34 16.06 118.34 23.52 110.88 16.06 118.34 16.06"
                style="fill:#3f51b5" />
            <line x1="87.12" y1="4.7" x2="116.23" y2="4.7"
                style="fill:none;stroke:#fff;stroke-linecap:round;stroke-linejoin:round;stroke-width:0.8349289999999999px" />
            <line x1="87.12" y1="8.73" x2="99.32" y2="8.73"
                style="fill:none;stroke:#fff;stroke-linecap:round;stroke-linejoin:round;stroke-width:0.8349289999999999px" />
            <line x1="87.12" y1="13.33" x2="109.31" y2="13.33"
                style="fill:none;stroke:#fff;stroke-linecap:round;stroke-linejoin:round;stroke-width:0.8349289999999999px" />
            <path d="M183.63,133.57s10.91-6.24,6.58-28.07"
                style="fill:none;stroke:#000103;stroke-miterlimit:10;stroke-width:1.0384900000000001px" />
            <rect x="184.69" y="67.53" width="5.27" height="42.56" style="fill:#3f51b5" />
            <path
                d="M189.4,110.1h0a8.06,8.06,0,0,1-8.05-8.06V75.56a8.06,8.06,0,0,1,8.05-8h0a8.06,8.06,0,0,1,8.06,8V102A8.06,8.06,0,0,1,189.4,110.1Z"
                style="fill:#3f51b5" />
            <path
                d="M185.61,110.1h0a7.14,7.14,0,0,1-7.13-7.14V74.65a7.14,7.14,0,0,1,7.13-7.14h0a7.14,7.14,0,0,1,7.14,7.14V103A7.14,7.14,0,0,1,185.61,110.1Z"
                style="fill:#2a3f96" />
            <rect x="165.72" y="134.76" width="6.07" height="33.47" style="fill:#fefeff" />
            <polygon points="167.29 163.96 149.85 171.84 150.1 174.08 168.28 168.22 167.29 163.96"
                style="fill:#fefeff" />
            <polygon points="170.25 163.96 187.69 171.84 187.45 174.08 169.26 168.22 170.25 163.96"
                style="fill:#fefeff" />
            <path d="M154.81,178.07a4.17,4.17,0,1,1-4.17-4.17A4.17,4.17,0,0,1,154.81,178.07Z"
                style="fill:#000103" />
            <path d="M191.86,178.07a4.17,4.17,0,1,1-4.17-4.17A4.17,4.17,0,0,1,191.86,178.07Z"
                style="fill:#000103" />
            <path
                d="M185.89,137.09H150.7a3.53,3.53,0,0,1-3.52-3.52h0a3.53,3.53,0,0,1,3.52-3.52h35.19a3.52,3.52,0,0,1,3.51,3.52h0A3.52,3.52,0,0,1,185.89,137.09Z"
                style="fill:#3f51b5" />
            <polygon points="144.75 60.33 152.16 68.57 159.42 61.02 148.29 48.79 144.75 60.33"
                style="fill:#f1ba9a" />
            <path d="M149.09,65.15c-.13-.14-.93-6.72-.93-6.72l-2.56,2.83Z" style="fill:#d89877" />
            <path
                d="M133.5,41.42s-4.25,2.74-2,8.6c0,0,1.67,4.23,4.11,10.3a5.42,5.42,0,0,0,8.09,2.53,16.14,16.14,0,0,0,4.75-5.2L150,54c3.2-9.58-7.23-18.19-15.89-13C133.91,41.15,133.7,41.28,133.5,41.42Z"
                style="fill:#f1ba9a" />
            <path d="M134.06,54.52l-1.23,2.88a.5.5,0,0,0,.61.68l2.18-.67Z" style="fill:#f1ba9a" />
            <path
                d="M134.22,49.24s-1.63.41-1.45,1.15c0,0,.13.49,1.55.11s1.74-.63,1.74-1.14S135,49,134.22,49.24Z" />
            <path
                d="M152.67,39.17a10.34,10.34,0,0,0-7.57-3.94A14.33,14.33,0,0,0,130.84,45c13.95-10.64,13.2,4.11,13.2,4.11a18.28,18.28,0,0,1,3.35,2.48c3,3.9,5.73,2.69,5.73,2.69C153.94,46.72,155,42.75,152.67,39.17Z"
                style="fill:#fa584e" />
            <path d="M135.66,54a.71.71,0,0,1-.63.78.72.72,0,0,1-.78-.64.71.71,0,1,1,1.41-.14Z" />
            <line x1="135.93" y1="58.83" x2="137.4" y2="57.76"
                style="fill:none;stroke:#000;stroke-linecap:round;stroke-linejoin:round;stroke-width:0.518683px" />
            <path
                d="M144.4,51h0A3.17,3.17,0,0,1,141,48.56l-1.07-4.73s-4.44,5.09-7.08,1c0,0-6.58,3.69-8-.94s2.93-5.82,12.36-8.71c0,0-1.87-1.61-.47-2.46S141,33.83,141,33.83s0-2.76,1.66-2.79,2.46,1.88,2.46,1.88,11.65-1.92,10,10.93l-2,10.43-6.82-5.09Z"
                style="fill:#fa584e" />
            <path d="M149.84,48.41a3.33,3.33,0,1,1-4.5-1.37A3.33,3.33,0,0,1,149.84,48.41Z"
                style="fill:#f1ba9a" />
            <path d="M145.91,51.26A1.94,1.94,0,0,1,147,48.38"
                style="fill:none;stroke:#000;stroke-linecap:round;stroke-linejoin:round;stroke-width:0.518683px" />
            <path
                d="M151.32,68.72s-.07,5.91,3.82,15.53,2.43,26.35,2.43,26.35,10.88,5.86,27.19,5.65c0,0,1.7-26-6.06-42-7.12-14.63-19.46-13.48-19.46-13.48Z"
                style="fill:#fefeff" />
            <rect x="85.98" y="100.95" width="23.17" height="2.54" style="fill:#fefeff" />
            <polygon points="130.78 93.88 109.09 98.67 108.37 103.47 138.63 103.47 130.78 93.88"
                style="fill:#f1ba9a" />
            <path
                d="M108.37,103.47s-8.07-.2-9.9-6.45l-6.84,1a1.44,1.44,0,0,1-1.44-1.44h0a1.44,1.44,0,0,1,1.18-1.41l5.47-1.63a6,6,0,0,1,2.16,0c1.7.31,5.76,2.44,10.09,5.18Z"
                style="fill:#f1ba9a" />
            <polygon points="152.7 68.7 130.78 93.88 138.63 103.47 165.44 82.37 152.7 68.7"
                style="fill:#fefeff" />
            <line x1="156.63" y1="89.31" x2="165.44" y2="82.37"
                style="fill:none;stroke:#ebeff2;stroke-miterlimit:10;stroke-width:0.778868px" />
            <polygon points="131.66 157.91 138.8 172.33 147.81 171.74 141.93 155.78 131.66 157.91"
                style="fill:#f1ba9a" />
            <path d="M137.5,170.39l-12.91,7a2.32,2.32,0,0,0-1.17,2.64h0l28-.57L148.15,170Z"
                style="fill:#000103" />
            <polygon points="151.92 182.2 123.15 182.78 123.09 180 151.86 179.41 151.92 182.2"
                style="fill:#fefeff" />
            <path
                d="M130.78,166.57l15.46-3.06-11-40.4a9.41,9.41,0,0,0-12.16-6.32h0a9.41,9.41,0,0,0-5.75,12.07Z"
                style="fill:#746256" />
            <path
                d="M157.57,110.6l-33.37,5.88s-2.59,4.62-.42,7.39l3.66,4.68c.89,1.14,2.25,2.84,3.69,2.84l40.93-1s12.84,1.26,12.7-14.1Z"
                style="fill:#746256" />
            <line x1="137.4" y1="130.97" x2="133.25" y2="127.57"
                style="fill:none;stroke:#5b493d;stroke-miterlimit:10;stroke-width:0.778868px" />
            <rect x="65.85" y="58.34" width="2.51" height="44.66" style="fill:#fefeff" />
            <rect x="54.91" y="100.95" width="25.29" height="2.51" style="fill:#fefeff" />
            <rect x="69.06" y="24.59" width="5.93" height="62.5"
                transform="translate(-14.7 27.82) rotate(-19.88)" style="fill:#fefeff" />
            <path
                d="M63.76,56.54a7.66,7.66,0,0,0,13,5.53,88.28,88.28,0,0,0-5.84-13.16A7.66,7.66,0,0,0,63.76,56.54Z"
                style="fill:#fefeff" />
            <path d="M66.93,50.36l2.55,13.56a5.58,5.58,0,0,0,2.45.25Z" style="fill:#c6c6c6" />
            <line x1="51.18" y1="109.06" x2="51.18" y2="182.78"
                style="fill:none;stroke:#fefeff;stroke-miterlimit:10;stroke-width:2.0769800000000003px" />
            <line x1="127.44" y1="109.06" x2="127.44" y2="182.78"
                style="fill:none;stroke:#fefeff;stroke-miterlimit:10;stroke-width:2.0769800000000003px" />
            <rect x="35.71" y="103.47" width="110.53" height="5.59" style="fill:#213033" />
            <line x1="242.79" y1="182.78" y2="182.78"
                style="fill:none;stroke:#213033;stroke-miterlimit:10;stroke-width:1.0384900000000001px" />
        </g>
    </g>
</svg>