<svg xmlns="http://www.w3.org/2000/svg" viewBox="0 0 339.56 256.14">
    <title>Asset 5</title>
    <g id="Layer_2" data-name="Layer 2">
        <g id="Layer_1-2" data-name="Layer 1">
            <path
                d="M255.46,41.45h31.27a1.75,1.75,0,0,1,1.75,1.75V58.5a1.75,1.75,0,0,1-1.75,1.75h-33a0,0,0,0,1,0,0V43.2A1.75,1.75,0,0,1,255.46,41.45Z"
                fill="#fff" />
            <polygon points="253.7 56.36 253.68 64.67 260.77 56.38 253.7 56.36" fill="#fff" />
            <path d="M276.24,50.61a1.57,1.57,0,1,0,1.57-1.56A1.56,1.56,0,0,0,276.24,50.61Z"
                fill="#4655a5" />
            <path d="M269.52,50.59A1.57,1.57,0,1,0,271.09,49,1.56,1.56,0,0,0,269.52,50.59Z"
                fill="#4655a5" />
            <path d="M262.81,50.57A1.57,1.57,0,1,0,264.38,49,1.56,1.56,0,0,0,262.81,50.57Z"
                fill="#4655a5" />
            <rect x="112.34" width="59.74" height="26.09" rx="1.25"
                transform="translate(284.41 26.09) rotate(180)" fill="#4655a5" />
            <polygon points="165.5 22.46 165.5 32.89 155.07 22.46 165.5 22.46" fill="#4655a5" />
            <line x1="121.85" y1="6.58" x2="162.55" y2="6.58" fill="none" stroke="#fff"
                stroke-linecap="round" stroke-linejoin="round" stroke-width="0.83" />
            <line x1="121.85" y1="12.21" x2="138.9" y2="12.21" fill="none" stroke="#fff"
                stroke-linecap="round" stroke-linejoin="round" stroke-width="0.83" />
            <line x1="121.85" y1="18.64" x2="152.87" y2="18.64" fill="none" stroke="#fff"
                stroke-linecap="round" stroke-linejoin="round" stroke-width="0.83" />
            <path d="M256.81,186.8s15.26-8.73,9.2-39.25" fill="none" stroke="#040406"
                stroke-miterlimit="10" stroke-width="1.04" />
            <rect x="258.3" y="94.45" width="7.38" height="59.53" fill="#4655a5" />
            <path
                d="M264.89,154h0a11.27,11.27,0,0,1-11.26-11.27v-37a11.26,11.26,0,0,1,11.26-11.26h0a11.26,11.26,0,0,1,11.26,11.26v37A11.27,11.27,0,0,1,264.89,154Z"
                fill="#4655a5" />
            <path
                d="M259.58,154h0a10,10,0,0,1-10-10V104.39a10,10,0,0,1,10-10h0a10,10,0,0,1,10,10V144A10,10,0,0,1,259.58,154Z"
                fill="#294295" />
            <rect x="231.76" y="188.46" width="8.49" height="46.81" fill="#fff" />
            <polygon points="233.96 229.31 209.57 240.33 209.91 243.46 235.35 235.27 233.96 229.31"
                fill="#fff" />
            <polygon points="238.1 229.31 262.5 240.33 262.15 243.46 236.71 235.27 238.1 229.31"
                fill="#fff" />
            <path d="M216.5,249a5.83,5.83,0,1,1-5.83-5.83A5.83,5.83,0,0,1,216.5,249Z"
                fill="#040406" />
            <path d="M268.33,249a5.83,5.83,0,1,1-5.83-5.83A5.83,5.83,0,0,1,268.33,249Z"
                fill="#040406" />
            <path
                d="M260,191.72H210.76a4.92,4.92,0,0,1-4.92-4.92h0a4.92,4.92,0,0,1,4.92-4.92H260a4.92,4.92,0,0,1,4.92,4.92h0A4.92,4.92,0,0,1,260,191.72Z"
                fill="#4655a5" />
            <polygon points="202.44 84.37 212.8 95.9 222.95 85.33 207.39 68.24 202.44 84.37"
                fill="#f1ba9a" />
            <path d="M208.51,91.12c-.18-.2-1.3-9.4-1.3-9.4l-3.59,4Z" fill="#d99977" />
            <path
                d="M186.7,57.93s-5.94,3.82-2.82,12c0,0,2.33,5.91,5.75,14.41A7.58,7.58,0,0,0,201,87.89a22.71,22.71,0,0,0,6.64-7.27l2.21-5.07c4.47-13.39-10.12-25.45-22.23-18.17C187.28,57.55,187,57.73,186.7,57.93Z"
                fill="#f1ba9a" />
            <path d="M187.49,76.25l-1.73,4a.71.71,0,0,0,.86,1l3-.94Z" fill="#f1ba9a" />
            <path
                d="M187.71,68.87s-2.28.57-2,1.6c0,0,.19.69,2.17.15s2.43-.88,2.44-1.59S188.75,68.51,187.71,68.87Z"
                fill="#010101" />
            <path
                d="M213.51,54.79c-2-3.1-6.88-5.44-10.58-5.52C187.08,48.92,183,62.94,183,62.94c19.5-14.89,18.46,5.75,18.46,5.75s3.76,2.25,4.68,3.46c4.15,5.46,8,3.76,8,3.76C215.29,65.34,216.78,59.79,213.51,54.79Z"
                fill="#f15a51" />
            <path d="M189.73,75.45a1,1,0,1,1-1.08-.89A1,1,0,0,1,189.73,75.45Z" fill="#010101" />
            <line x1="190.11" y1="82.28" x2="192.15" y2="80.77" fill="none" stroke="#010101"
                stroke-linecap="round" stroke-linejoin="round" stroke-width="0.52" />
            <path
                d="M201.94,71.36h0a4.43,4.43,0,0,1-4.79-3.44l-1.49-6.62s-6.21,7.12-9.91,1.32c0,0-9.2,5.17-11.18-1.31s4.1-8.14,17.29-12.18c0,0-2.61-2.25-.66-3.44s6,1.62,6,1.62,0-3.86,2.31-3.9S203,46,203,46s16.3-2.69,14,15.29l-2.81,14.59-9.54-7.13Z"
                fill="#f15a51" />
            <path d="M209.56,67.71a4.66,4.66,0,1,1-6.3-1.93A4.66,4.66,0,0,1,209.56,67.71Z"
                fill="#f1ba9a" />
            <path d="M204.06,71.69s-1.58-3,1.52-4" fill="none" stroke="#010101"
                stroke-linecap="round" stroke-linejoin="round" stroke-width="0.52" />
            <path
                d="M211.63,96.11s-.1,8.27,5.34,21.72,3.4,36.85,3.4,36.85,15.21,8.19,38,7.9c0,0,2.38-36.43-8.48-58.79-9.94-20.47-27.2-18.86-27.2-18.86Z"
                fill="#fff" />
            <rect x="120.25" y="141.19" width="32.4" height="3.56" fill="#fff" />
            <polygon points="182.9 131.29 152.57 138 151.56 144.7 193.88 144.7 182.9 131.29"
                fill="#f1ba9a" />
            <path
                d="M151.56,144.7s-11.29-.27-13.85-9L128.15,137a2,2,0,0,1-2-2h0a2,2,0,0,1,1.64-2l7.65-2.27a8.29,8.29,0,0,1,3,0c2.39.44,8.06,3.41,14.12,7.25Z"
                fill="#f1ba9a" />
            <polygon points="213.56 96.08 182.9 131.29 193.88 144.7 231.37 115.2 213.56 96.08"
                fill="#fff" />
            <line x1="219.05" y1="124.9" x2="231.37" y2="115.2" fill="none" stroke="#eceff2"
                stroke-miterlimit="10" stroke-width="0.78" />
            <polygon points="184.13 220.84 194.11 241.01 206.72 240.19 198.5 217.87 184.13 220.84"
                fill="#f1ba9a" />
            <path d="M192.29,238.3l-18,9.73a3.26,3.26,0,0,0-1.63,3.69h0l39.13-.79L207.2,237.8Z"
                fill="#040406" />
            <polygon points="212.46 254.81 172.23 255.63 172.15 251.73 212.38 250.92 212.46 254.81"
                fill="#fff" />
            <path
                d="M182.9,233l21.62-4.27-15.35-56.51a13.17,13.17,0,0,0-17-8.84h0a13.16,13.16,0,0,0-8,16.88Z"
                fill="#756357" />
            <path
                d="M220.37,154.68,173.7,162.9s-3.62,6.47-.59,10.34l5.12,6.55c1.24,1.58,3.15,4,5.16,4l57.24-1.45s18,1.76,17.76-19.72Z"
                fill="#756357" />
            <line x1="192.15" y1="183.16" x2="186.36" y2="178.41" fill="none" stroke="#5c4a3e"
                stroke-miterlimit="10" stroke-width="0.78" />
            <rect x="92.1" y="81.59" width="3.51" height="62.46" fill="#fff" />
            <rect x="76.79" y="141.19" width="35.37" height="3.51" fill="#fff" />
            <rect x="96.58" y="34.39" width="8.29" height="87.41"
                transform="translate(-20.56 38.91) rotate(-19.88)" fill="#fff" />
            <path
                d="M89.17,79.08A10.71,10.71,0,0,0,107.3,86.8a124.31,124.31,0,0,0-8.17-18.39A10.7,10.7,0,0,0,89.17,79.08Z"
                fill="#fff" />
            <path d="M93.61,70.43l3.56,19a8,8,0,0,0,3.42.35Z" fill="#c7c6c5" />
            <line x1="71.57" y1="152.52" x2="71.57" y2="255.62" fill="none" stroke="#fff"
                stroke-miterlimit="10" stroke-width="2.08" />
            <line x1="178.23" y1="152.52" x2="178.23" y2="255.62" fill="none" stroke="#fff"
                stroke-miterlimit="10" stroke-width="2.08" />
            <rect x="49.94" y="144.7" width="154.58" height="7.82" fill="#213134" />
            <line x1="339.56" y1="255.62" y2="255.62" fill="none" stroke="#213134"
                stroke-miterlimit="10" stroke-width="1.04" />
        </g>
    </g>
</svg>