<svg xmlns="http://www.w3.org/2000/svg" viewBox="0 0 100 100">
    <title>Asset 3</title>
    <g id="Layer_2" data-name="Layer 2">
        <g id="Layer_1-2" data-name="Layer 1">
            <circle cx="50" cy="50" r="50" style="fill:#c2daf2" />
            <path
                d="M99.54,56.79,87.93,45.18l-3.25,3.35L72.91,36.77l-5.63-1.36-6.49,4.16,9.91,9.9L63,49.54,37.18,23.77l-5,.67-2.91,7.12L47.39,49.68,11.11,50,34.58,73.47l-6.8,4.31L50,100h0A50,50,0,0,0,99.54,56.79Z"
                style="fill:#94bde4" />
            <path
                d="M86,55.56H22.22V44.44H86a2.88,2.88,0,0,1,2.88,2.88v5.36A2.88,2.88,0,0,1,86,55.56Z"
                style="fill:#eba230" />
            <path d="M22.22,49.92v5.64H86a2.88,2.88,0,0,0,2.88-2.88V49.92Z" style="fill:#df9226" />
            <rect x="22.22" y="44.44" width="59.15" height="11.11" style="fill:#273c7a" />
            <rect x="22.22" y="50" width="59.15" height="5.56" style="fill:#1a1448" />
            <polygon points="22.22 44.45 11.11 50 22.22 55.55 22.22 44.45" style="fill:#fde187" />
            <polygon points="11.28 49.92 11.11 50 22.22 55.55 22.22 49.92 11.28 49.92"
                style="fill:#ffc71e" />
            <polygon points="11.11 50 16.3 52.59 16.3 47.41 11.11 50" style="fill:#5a5a5c" />
            <polygon points="11.28 49.92 11.11 50 16.3 52.59 16.3 49.92 11.28 49.92"
                style="fill:#282525" />
            <circle cx="33.33" cy="27.78" r="5.56" style="fill:#fff" />
            <path d="M33.33,22.22h-.11v11.1h.11a5.56,5.56,0,1,0,0-11.11Z" style="fill:#c2daf2" />
            <rect x="27.78" y="61.11" width="16.67" height="16.67" style="fill:#ffc71e" />
            <rect x="36" y="61.11" width="8.44" height="16.67" style="fill:#eba230" />
            <polygon points="60.79 39.57 64.43 27.67 72.91 36.77 60.79 39.57" style="fill:#fff" />
            <polygon points="64.43 27.67 64.4 27.76 67.13 38.1 72.91 36.77 64.43 27.67"
                style="fill:#c2daf2" />
        </g>
    </g>
</svg>